<?xml version="1.0" encoding="UTF-8" standalone="no"?>
<svg
   width="16"
   height="16"
   viewBox="0 0 16 16"
   fill="none"
   version="1.1"
   id="svg1"
   sodipodi:docname="maximize_kde_hover.svg"
   inkscape:version="1.3 (0e150ed6c4, 2023-07-21)"
   xmlns:inkscape="http://www.inkscape.org/namespaces/inkscape"
   xmlns:sodipodi="http://sodipodi.sourceforge.net/DTD/sodipodi-0.dtd"
   xmlns="http://www.w3.org/2000/svg"
   xmlns:svg="http://www.w3.org/2000/svg">
  <defs
     id="defs1" />
  <sodipodi:namedview
     id="namedview1"
     pagecolor="#ffffff"
     bordercolor="#666666"
     borderopacity="1.0"
     inkscape:showpageshadow="2"
     inkscape:pageopacity="0.0"
     inkscape:pagecheckerboard="0"
     inkscape:deskcolor="#d1d1d1"
     inkscape:zoom="11.313709"
     inkscape:cx="1.7235727"
     inkscape:cy="12.904698"
     inkscape:window-width="3840"
     inkscape:window-height="2035"
     inkscape:window-x="0"
     inkscape:window-y="0"
     inkscape:window-maximized="1"
     inkscape:current-layer="svg1" />
  <path
     style="fill:#232629;fill-opacity:1;fill-rule:evenodd;stroke:none;stroke-width:3.42689;stroke-linecap:round;stroke-linejoin:round;stroke-miterlimit:0;paint-order:markers stroke fill"
     id="path2"
     sodipodi:type="arc"
     sodipodi:cx="8"
     sodipodi:cy="8"
     sodipodi:rx="8"
     sodipodi:ry="8"
     sodipodi:start="0"
     sodipodi:end="6.2803127"
     sodipodi:open="true"
     sodipodi:arc-type="arc"
     d="M 16,8 A 8,8 0 0 1 8.0057452,15.999998 8,8 0 0 1 8.2518706e-6,8.0114904 8,8 0 0 1 7.9827644,1.8566705e-5 8,8 0 0 1 15.999967,7.9770192" />
  <path
     id="path1-5"
     style="fill:#eff0f1;fill-opacity:1;stroke-width:0.76862"
     d="M 8,4 C 7.5373421,4.4625007 7.8760193,4.1259426 7.4570312,4.5447889 L 4.5429688,7.4581402 4,7.9990237 4.5429688,8.5438126 7.4570312,11.457164 C 7.8797989,11.879788 7.5555019,11.555653 8,12 8.4626578,11.5375 8.1239807,11.87601 8.5429688,11.457164 L 11.457031,8.5438126 12,7.9990237 11.457031,7.4581402 8.5429688,4.5447889 C 8.1202011,4.1221645 8.4444981,4.4443471 8,4 Z M 8,5.0876252 10.914062,8.0009765 8,10.914328 5.0859375,8.0009765 Z" />
</svg>
